<svg width="20" height="23" viewBox="0 0 20 23" fill="none" xmlns="http://www.w3.org/2000/svg">
<path d="M18.5625 2.125H13.4062L12.9766 1.35156C12.8047 1.00781 12.4609 0.75 12.0742 0.75H7.13281C6.74609 0.75 6.40234 1.00781 6.23047 1.35156L5.84375 2.125H0.6875C0.300781 2.125 0 2.46875 0 2.8125V4.1875C0 4.57422 0.300781 4.875 0.6875 4.875H18.5625C18.9062 4.875 19.25 4.57422 19.25 4.1875V2.8125C19.25 2.46875 18.9062 2.125 18.5625 2.125ZM2.27734 20.8164C2.32031 21.9336 3.22266 22.75 4.33984 22.75H14.8672C15.9844 22.75 16.8867 21.9336 16.9297 20.8164L17.875 6.25H1.375L2.27734 20.8164Z" fill="white" fill-opacity="0.8"/>
</svg>
