<svg width="38" height="40" viewBox="0 0 38 40" fill="none" xmlns="http://www.w3.org/2000/svg">
<path d="M37.0469 24.6875L33.6875 22.8125C34.0781 20.9375 34.0781 19.1406 33.6875 17.2656L37.0469 15.3906C37.4375 15.1562 37.5938 14.6875 37.4375 14.2969C36.5781 11.4844 35.0938 8.98438 33.2188 6.875C32.9062 6.5625 32.4375 6.48438 32.0469 6.71875L28.6875 8.59375C27.2812 7.42188 25.7188 6.48438 24 5.85938V2.03125C24 1.64062 23.6875 1.25 23.2188 1.17188C20.3281 0.46875 17.4375 0.546875 14.7031 1.17188C14.2344 1.25 14 1.64062 14 2.03125V5.85938C12.2031 6.48438 10.6406 7.42188 9.23438 8.67188L5.875 6.71875C5.48438 6.48438 5.01562 6.5625 4.70312 6.875C2.82812 8.98438 1.34375 11.4844 0.484375 14.2969C0.328125 14.6875 0.484375 15.1562 0.875 15.3906L4.23438 17.2656C3.92188 19.1406 3.92188 20.9375 4.23438 22.8125L0.875 24.6875C0.484375 24.9219 0.328125 25.3906 0.484375 25.7812C1.34375 28.5938 2.82812 31.0938 4.70312 33.2031C5.01562 33.5156 5.48438 33.5938 5.875 33.3594L9.23438 31.4844C10.6406 32.6562 12.2031 33.5938 14 34.2188V38.0469C14 38.4375 14.3125 38.8281 14.7031 38.9844C17.5938 39.6094 20.4844 39.5312 23.2188 38.9844C23.6875 38.8281 24 38.4375 24 38.0469V34.2188C25.7188 33.5938 27.2812 32.6562 28.6875 31.4844L32.0469 33.3594C32.4375 33.5938 32.9062 33.5156 33.2188 33.2031C35.1719 31.0938 36.5781 28.5938 37.5156 25.7812C37.5938 25.3906 37.4375 24.9219 37.0469 24.6875ZM19 26.25C15.4844 26.25 12.75 23.5156 12.75 20C12.75 16.5625 15.4844 13.75 19 13.75C22.4375 13.75 25.25 16.5625 25.25 20C25.25 23.5156 22.4375 26.25 19 26.25Z" fill="white" fill-opacity="0.8"/>
</svg>
