<svg width="29" height="42" viewBox="0 0 29 42" fill="none" xmlns="http://www.w3.org/2000/svg">
<path d="M7.6875 36.5605C7.6875 37.041 7.76758 37.5215 8.08789 38.002L9.44922 40.0039C9.92969 40.7246 10.7305 41.2051 11.6113 41.2051H16.4961C17.377 41.2051 18.1777 40.7246 18.6582 40.0039L20.0195 38.002C20.2598 37.5215 20.4199 37.041 20.4199 36.5605V33.4375H7.6875V36.5605ZM0 14.2188C0 17.8223 1.28125 21.0254 3.44336 23.5078C4.80469 25.0293 6.80664 28.2324 7.60742 30.875C7.60742 30.875 7.60742 30.875 7.60742 30.9551H20.5C20.5 30.875 20.5 30.875 20.5 30.875C21.3008 28.2324 23.3027 25.0293 24.6641 23.5078C26.8262 21.0254 28.1875 17.8223 28.1875 14.2188C28.1875 6.45117 21.7812 0.125 14.0137 0.125C5.8457 0.205078 0 6.77148 0 14.2188ZM14.0938 7.8125C10.4902 7.8125 7.6875 10.6953 7.6875 14.2188C7.6875 14.9395 7.04688 15.5 6.40625 15.5C5.68555 15.5 5.125 14.9395 5.125 14.2188C5.125 9.33398 9.12891 5.25 14.0938 5.25C14.7344 5.25 15.375 5.89062 15.375 6.53125C15.375 7.25195 14.7344 7.8125 14.0938 7.8125Z" fill="#FBC473"/>
</svg>
